<svg xmlns="http://www.w3.org/2000/svg" viewBox="0 0 100 100" width="100" height="100">
  <defs>
    <linearGradient id="logoGradient" x1="0%" y1="0%" x2="100%" y2="100%">
      <stop offset="0%" style="stop-color:#C12A37;stop-opacity:1" />
      <stop offset="100%" style="stop-color:#DC2626;stop-opacity:1" />
    </linearGradient>
    <filter id="shadow" x="-20%" y="-20%" width="140%" height="140%">
      <feDropShadow dx="2" dy="4" stdDeviation="3" flood-color="rgba(0,0,0,0.3)"/>
    </filter>
  </defs>
  
  <!-- Background circle -->
  <circle cx="50" cy="50" r="45" fill="url(#logoGradient)" filter="url(#shadow)" />
  
  <!-- Letter C -->
  <path d="M 35 25 
           C 25 25, 20 35, 20 50
           C 20 65, 25 75, 35 75
           C 45 75, 50 70, 52 65
           L 45 62
           C 43 65, 40 68, 35 68
           C 30 68, 27 62, 27 50
           C 27 38, 30 32, 35 32
           C 40 32, 43 35, 45 38
           L 52 35
           C 50 30, 45 25, 35 25 Z" 
        fill="white" 
        stroke="none"/>
  
  <!-- Highlight accent -->
  <path d="M 30 30 
           C 35 28, 40 30, 42 32
           L 38 35
           C 36 33, 34 32, 32 33
           C 30 34, 29 36, 29 38
           L 26 36
           C 26 33, 28 30, 30 30 Z" 
        fill="rgba(255,255,255,0.3)" 
        stroke="none"/>
</svg>
